<mxfile host="app.diagrams.net" modified="2023-11-02T07:37:45.955Z" agent="Mozilla/5.0 (Macintosh; Intel Mac OS X 10_15_7) AppleWebKit/537.36 (KHTML, like Gecko) Chrome/118.0.0.0 Safari/537.36" etag="3RBkybZD9kHZoa4JFFqB" version="22.0.8" type="device">
  <diagram name="Page-1" id="v5ohUNkm4YD7jwQh4eD8">
    <mxGraphModel dx="1625" dy="1125" grid="0" gridSize="10" guides="1" tooltips="1" connect="1" arrows="1" fold="1" page="1" pageScale="1" pageWidth="1600" pageHeight="900" math="0" shadow="0">
      <root>
        <mxCell id="0" />
        <mxCell id="1" parent="0" />
        <mxCell id="7fbWs8w8Dx33rmhqO2U3-72" value="" style="rounded=1;whiteSpace=wrap;html=1;fillColor=none;strokeWidth=7;strokeColor=#bababa;" vertex="1" parent="1">
          <mxGeometry x="120" y="250" width="950" height="440" as="geometry" />
        </mxCell>
        <object placeholders="1" c4Name="mainframe online shopping system" c4Type="Software System" c4Description="shopping history, address, contact information, and payment methods are stored" label="&lt;font style=&quot;font-size: 14px;&quot;&gt;&lt;b style=&quot;font-size: 14px;&quot;&gt;%c4Name%&lt;/b&gt;&lt;/font&gt;&lt;div style=&quot;font-size: 14px;&quot;&gt;[%c4Type%]&lt;/div&gt;&lt;br style=&quot;font-size: 14px;&quot;&gt;&lt;div style=&quot;font-size: 14px;&quot;&gt;&lt;font style=&quot;font-size: 14px;&quot;&gt;&lt;font color=&quot;#cccccc&quot; style=&quot;font-size: 14px;&quot;&gt;%c4Description%&lt;/font&gt;&lt;/font&gt;&lt;/div&gt;" id="7fbWs8w8Dx33rmhqO2U3-5">
          <mxCell style="rounded=1;whiteSpace=wrap;html=1;labelBackgroundColor=none;fillColor=#8C8496;fontColor=#ffffff;align=center;arcSize=10;strokeColor=#736782;metaEdit=1;resizable=0;points=[[0.25,0,0],[0.5,0,0],[0.75,0,0],[1,0.25,0],[1,0.5,0],[1,0.75,0],[0.75,1,0],[0.5,1,0],[0.25,1,0],[0,0.75,0],[0,0.5,0],[0,0.25,0]];fontSize=14;" vertex="1" parent="1">
            <mxGeometry x="1150" y="600" width="240" height="120" as="geometry" />
          </mxCell>
        </object>
        <object placeholders="1" c4Name="email system" c4Type="Software System" c4Description="customers receive confirmation emails and receipts after each purchase" label="&lt;font style=&quot;font-size: 14px;&quot;&gt;&lt;b style=&quot;font-size: 14px;&quot;&gt;%c4Name%&lt;/b&gt;&lt;/font&gt;&lt;div style=&quot;font-size: 14px;&quot;&gt;[%c4Type%]&lt;/div&gt;&lt;br style=&quot;font-size: 14px;&quot;&gt;&lt;div style=&quot;font-size: 14px;&quot;&gt;&lt;font style=&quot;font-size: 14px;&quot;&gt;&lt;font color=&quot;#cccccc&quot; style=&quot;font-size: 14px;&quot;&gt;%c4Description%&lt;/font&gt;&lt;/font&gt;&lt;/div&gt;" id="7fbWs8w8Dx33rmhqO2U3-6">
          <mxCell style="rounded=1;whiteSpace=wrap;html=1;labelBackgroundColor=none;fillColor=#8C8496;fontColor=#ffffff;align=center;arcSize=10;strokeColor=#736782;metaEdit=1;resizable=0;points=[[0.25,0,0],[0.5,0,0],[0.75,0,0],[1,0.25,0],[1,0.5,0],[1,0.75,0],[0.75,1,0],[0.5,1,0],[0.25,1,0],[0,0.75,0],[0,0.5,0],[0,0.25,0]];fontSize=14;" vertex="1" parent="1">
            <mxGeometry x="1130" y="210" width="240" height="120" as="geometry" />
          </mxCell>
        </object>
        <object placeholders="1" c4Name="credit card payment system" c4Type="Software System" c4Description="processing payments" label="&lt;font style=&quot;font-size: 14px;&quot;&gt;&lt;b style=&quot;font-size: 14px;&quot;&gt;%c4Name%&lt;/b&gt;&lt;/font&gt;&lt;div style=&quot;font-size: 14px;&quot;&gt;[%c4Type%]&lt;/div&gt;&lt;br style=&quot;font-size: 14px;&quot;&gt;&lt;div style=&quot;font-size: 14px;&quot;&gt;&lt;font style=&quot;font-size: 14px;&quot;&gt;&lt;font color=&quot;#cccccc&quot; style=&quot;font-size: 14px;&quot;&gt;%c4Description%&lt;/font&gt;&lt;/font&gt;&lt;/div&gt;" id="7fbWs8w8Dx33rmhqO2U3-9">
          <mxCell style="rounded=1;whiteSpace=wrap;html=1;labelBackgroundColor=none;fillColor=#8C8496;fontColor=#ffffff;align=center;arcSize=10;strokeColor=#736782;metaEdit=1;resizable=0;points=[[0.25,0,0],[0.5,0,0],[0.75,0,0],[1,0.25,0],[1,0.5,0],[1,0.75,0],[0.75,1,0],[0.5,1,0],[0.25,1,0],[0,0.75,0],[0,0.5,0],[0,0.25,0]];fontSize=14;" vertex="1" parent="1">
            <mxGeometry x="410" y="760" width="240" height="120" as="geometry" />
          </mxCell>
        </object>
        <object placeholders="1" c4Name="delivery system" c4Type="Software System" c4Description="shipping and handling" label="&lt;font style=&quot;font-size: 14px;&quot;&gt;&lt;b style=&quot;font-size: 14px;&quot;&gt;%c4Name%&lt;/b&gt;&lt;/font&gt;&lt;div style=&quot;font-size: 14px;&quot;&gt;[%c4Type%]&lt;/div&gt;&lt;br style=&quot;font-size: 14px;&quot;&gt;&lt;div style=&quot;font-size: 14px;&quot;&gt;&lt;font style=&quot;font-size: 14px;&quot;&gt;&lt;font color=&quot;#cccccc&quot; style=&quot;font-size: 14px;&quot;&gt;%c4Description%&lt;/font&gt;&lt;/font&gt;&lt;/div&gt;" id="7fbWs8w8Dx33rmhqO2U3-10">
          <mxCell style="rounded=1;whiteSpace=wrap;html=1;labelBackgroundColor=none;fillColor=#8C8496;fontColor=#ffffff;align=center;arcSize=10;strokeColor=#736782;metaEdit=1;resizable=0;points=[[0.25,0,0],[0.5,0,0],[0.75,0,0],[1,0.25,0],[1,0.5,0],[1,0.75,0],[0.75,1,0],[0.5,1,0],[0.25,1,0],[0,0.75,0],[0,0.5,0],[0,0.25,0]];fontSize=14;" vertex="1" parent="1">
            <mxGeometry x="910" y="760" width="240" height="120" as="geometry" />
          </mxCell>
        </object>
        <mxCell id="7fbWs8w8Dx33rmhqO2U3-47" style="edgeStyle=orthogonalEdgeStyle;rounded=0;orthogonalLoop=1;jettySize=auto;html=1;exitX=0.25;exitY=1;exitDx=0;exitDy=0;exitPerimeter=0;dashed=1;strokeWidth=4;entryX=0.829;entryY=0.006;entryDx=0;entryDy=0;entryPerimeter=0;" edge="1" parent="1" source="7fbWs8w8Dx33rmhqO2U3-11" target="7fbWs8w8Dx33rmhqO2U3-37">
          <mxGeometry relative="1" as="geometry" />
        </mxCell>
        <mxCell id="7fbWs8w8Dx33rmhqO2U3-48" style="edgeStyle=orthogonalEdgeStyle;rounded=0;orthogonalLoop=1;jettySize=auto;html=1;exitX=0;exitY=0.75;exitDx=0;exitDy=0;exitPerimeter=0;strokeWidth=4;dashed=1;" edge="1" parent="1" source="7fbWs8w8Dx33rmhqO2U3-11" target="7fbWs8w8Dx33rmhqO2U3-36">
          <mxGeometry relative="1" as="geometry" />
        </mxCell>
        <object placeholders="1" c4Name="Customer" c4Type="Person" c4Description="customer shopping for clothing" label="&lt;font style=&quot;font-size: 14px;&quot;&gt;&lt;b style=&quot;font-size: 14px;&quot;&gt;%c4Name%&lt;/b&gt;&lt;/font&gt;&lt;div style=&quot;font-size: 14px;&quot;&gt;[%c4Type%]&lt;/div&gt;&lt;br style=&quot;font-size: 14px;&quot;&gt;&lt;div style=&quot;font-size: 14px;&quot;&gt;&lt;font style=&quot;font-size: 14px;&quot;&gt;&lt;font color=&quot;#cccccc&quot; style=&quot;font-size: 14px;&quot;&gt;%c4Description%&lt;/font&gt;&lt;/font&gt;&lt;/div&gt;" id="7fbWs8w8Dx33rmhqO2U3-11">
          <mxCell style="html=1;fontSize=14;dashed=0;whiteSpace=wrap;fillColor=#083F75;strokeColor=#06315C;fontColor=#ffffff;shape=mxgraph.c4.person2;align=center;metaEdit=1;points=[[0.5,0,0],[1,0.5,0],[1,0.75,0],[0.75,1,0],[0.5,1,0],[0.25,1,0],[0,0.75,0],[0,0.5,0]];resizable=0;" vertex="1" parent="1">
            <mxGeometry x="670" y="10" width="200" height="180" as="geometry" />
          </mxCell>
        </object>
        <object placeholders="1" c4Type="Database" c4Container="Container" c4Technology="relational database schema" c4Description="shopping history, address, contact information, and payment methods are stored" label="&lt;font style=&quot;font-size: 16px&quot;&gt;&lt;b&gt;%c4Type%&lt;/b&gt;&lt;/font&gt;&lt;div&gt;[%c4Container%:&amp;nbsp;%c4Technology%]&lt;/div&gt;&lt;br&gt;&lt;div&gt;&lt;font style=&quot;font-size: 11px&quot;&gt;&lt;font color=&quot;#E6E6E6&quot;&gt;%c4Description%&lt;/font&gt;&lt;/div&gt;" id="7fbWs8w8Dx33rmhqO2U3-28">
          <mxCell style="shape=cylinder3;size=11;whiteSpace=wrap;html=1;boundedLbl=1;rounded=0;labelBackgroundColor=none;fillColor=#23A2D9;fontSize=12;fontColor=#ffffff;align=center;strokeColor=#0E7DAD;metaEdit=1;points=[[0.5,0,0],[1,0.25,0],[1,0.5,0],[1,0.75,0],[0.5,1,0],[0,0.75,0],[0,0.5,0],[0,0.25,0]];resizable=0;" vertex="1" parent="1">
            <mxGeometry x="160" y="540" width="240" height="120" as="geometry" />
          </mxCell>
        </object>
        <mxCell id="7fbWs8w8Dx33rmhqO2U3-40" value="" style="edgeStyle=orthogonalEdgeStyle;rounded=0;orthogonalLoop=1;jettySize=auto;html=1;exitX=1;exitY=0.25;exitDx=0;exitDy=0;exitPerimeter=0;dashed=1;strokeWidth=4;" edge="1" parent="1" source="7fbWs8w8Dx33rmhqO2U3-33" target="7fbWs8w8Dx33rmhqO2U3-6">
          <mxGeometry relative="1" as="geometry" />
        </mxCell>
        <mxCell id="7fbWs8w8Dx33rmhqO2U3-58" value="&lt;font style=&quot;font-size: 20px;&quot;&gt;sends emails using&lt;br&gt;(SMTP)&lt;/font&gt;" style="edgeLabel;html=1;align=center;verticalAlign=middle;resizable=0;points=[];labelBackgroundColor=none;" vertex="1" connectable="0" parent="7fbWs8w8Dx33rmhqO2U3-40">
          <mxGeometry x="0.7111" relative="1" as="geometry">
            <mxPoint y="36" as="offset" />
          </mxGeometry>
        </mxCell>
        <object placeholders="1" c4Name="API application" c4Type="Container" c4Technology="Java and Spring MVC" c4Description="Provides online shopping system functionality via JSON/HTTPS API" label="&lt;font style=&quot;font-size: 14px;&quot;&gt;&lt;b style=&quot;font-size: 14px;&quot;&gt;%c4Name%&lt;/b&gt;&lt;/font&gt;&lt;div style=&quot;font-size: 14px;&quot;&gt;[%c4Type%: %c4Technology%]&lt;/div&gt;&lt;br style=&quot;font-size: 14px;&quot;&gt;&lt;div style=&quot;font-size: 14px;&quot;&gt;&lt;font style=&quot;font-size: 14px;&quot;&gt;&lt;font color=&quot;#E6E6E6&quot; style=&quot;font-size: 14px;&quot;&gt;%c4Description%&lt;/font&gt;&lt;/font&gt;&lt;/div&gt;" id="7fbWs8w8Dx33rmhqO2U3-33">
          <mxCell style="rounded=1;whiteSpace=wrap;html=1;fontSize=14;labelBackgroundColor=none;fillColor=#23A2D9;fontColor=#ffffff;align=center;arcSize=10;strokeColor=#0E7DAD;metaEdit=1;resizable=0;points=[[0.25,0,0],[0.5,0,0],[0.75,0,0],[1,0.25,0],[1,0.5,0],[1,0.75,0],[0.75,1,0],[0.5,1,0],[0.25,1,0],[0,0.75,0],[0,0.5,0],[0,0.25,0]];" vertex="1" parent="1">
            <mxGeometry x="670" y="540" width="240" height="120" as="geometry" />
          </mxCell>
        </object>
        <object placeholders="1" c4Name="Web application" c4Type="Container" c4Technology="Java and Spring MVC" c4Description="delivers the static content and the online shopping store single page application" label="&lt;font style=&quot;font-size: 14px;&quot;&gt;&lt;b style=&quot;font-size: 14px;&quot;&gt;%c4Name%&lt;/b&gt;&lt;/font&gt;&lt;div style=&quot;font-size: 14px;&quot;&gt;[%c4Type%: %c4Technology%]&lt;/div&gt;&lt;br style=&quot;font-size: 14px;&quot;&gt;&lt;div style=&quot;font-size: 14px;&quot;&gt;&lt;font style=&quot;font-size: 14px;&quot;&gt;&lt;font color=&quot;#E6E6E6&quot; style=&quot;font-size: 14px;&quot;&gt;%c4Description%&lt;/font&gt;&lt;/font&gt;&lt;/div&gt;" id="7fbWs8w8Dx33rmhqO2U3-36">
          <mxCell style="rounded=1;whiteSpace=wrap;html=1;fontSize=14;labelBackgroundColor=none;fillColor=#23A2D9;fontColor=#ffffff;align=center;arcSize=10;strokeColor=#0E7DAD;metaEdit=1;resizable=0;points=[[0.25,0,0],[0.5,0,0],[0.75,0,0],[1,0.25,0],[1,0.5,0],[1,0.75,0],[0.75,1,0],[0.5,1,0],[0.25,1,0],[0,0.75,0],[0,0.5,0],[0,0.25,0]];" vertex="1" parent="1">
            <mxGeometry x="160" y="300" width="240" height="120" as="geometry" />
          </mxCell>
        </object>
        <object placeholders="1" c4Type="Single-page application" c4Container="Container" c4Technology="JavaScript and Angular" c4Description="Provides all online shopping store functionality to customers via their web browser" label="&lt;font style=&quot;font-size: 14px;&quot;&gt;&lt;b style=&quot;font-size: 14px;&quot;&gt;%c4Type%&lt;/b&gt;&lt;/font&gt;&lt;div style=&quot;font-size: 14px;&quot;&gt;[%c4Container%:&amp;nbsp;%c4Technology%]&lt;/div&gt;&lt;br style=&quot;font-size: 14px;&quot;&gt;&lt;div style=&quot;font-size: 14px;&quot;&gt;&lt;font style=&quot;font-size: 14px;&quot;&gt;&lt;font color=&quot;#E6E6E6&quot; style=&quot;font-size: 14px;&quot;&gt;%c4Description%&lt;/font&gt;&lt;/font&gt;&lt;/div&gt;" id="7fbWs8w8Dx33rmhqO2U3-37">
          <mxCell style="shape=mxgraph.c4.webBrowserContainer2;whiteSpace=wrap;html=1;boundedLbl=1;rounded=0;labelBackgroundColor=none;strokeColor=#118ACD;fillColor=#23A2D9;strokeColor=#118ACD;strokeColor2=#0E7DAD;fontSize=14;fontColor=#ffffff;align=center;metaEdit=1;points=[[0.5,0,0],[1,0.25,0],[1,0.5,0],[1,0.75,0],[0.5,1,0],[0,0.75,0],[0,0.5,0],[0,0.25,0]];resizable=0;" vertex="1" parent="1">
            <mxGeometry x="520" y="280" width="240" height="160" as="geometry" />
          </mxCell>
        </object>
        <mxCell id="7fbWs8w8Dx33rmhqO2U3-59" style="edgeStyle=orthogonalEdgeStyle;rounded=0;orthogonalLoop=1;jettySize=auto;html=1;exitX=0.5;exitY=0;exitDx=0;exitDy=0;exitPerimeter=0;" edge="1" parent="1" source="7fbWs8w8Dx33rmhqO2U3-39">
          <mxGeometry relative="1" as="geometry">
            <mxPoint x="910" y="290" as="targetPoint" />
          </mxGeometry>
        </mxCell>
        <object placeholders="1" c4Name="Mobile app" c4Type="Container" c4Technology="Xamarin" c4Description="Provides limited online shopping store functionality to customers via their mobile devices." label="&lt;font style=&quot;font-size: 14px;&quot;&gt;&lt;b style=&quot;font-size: 14px;&quot;&gt;%c4Name%&lt;/b&gt;&lt;/font&gt;&lt;div style=&quot;font-size: 14px;&quot;&gt;[%c4Type%: %c4Technology%]&lt;/div&gt;&lt;br style=&quot;font-size: 14px;&quot;&gt;&lt;div style=&quot;font-size: 14px;&quot;&gt;&lt;font style=&quot;font-size: 14px;&quot;&gt;&lt;font color=&quot;#E6E6E6&quot; style=&quot;font-size: 14px;&quot;&gt;%c4Description%&lt;/font&gt;&lt;/font&gt;&lt;/div&gt;" id="7fbWs8w8Dx33rmhqO2U3-39">
          <mxCell style="rounded=1;whiteSpace=wrap;html=1;fontSize=14;labelBackgroundColor=none;fillColor=#23A2D9;fontColor=#ffffff;align=center;arcSize=10;strokeColor=#0E7DAD;metaEdit=1;resizable=0;points=[[0.25,0,0],[0.5,0,0],[0.75,0,0],[1,0.25,0],[1,0.5,0],[1,0.75,0],[0.75,1,0],[0.5,1,0],[0.25,1,0],[0,0.75,0],[0,0.5,0],[0,0.25,0]];strokeWidth=16;" vertex="1" parent="1">
            <mxGeometry x="790" y="300" width="240" height="120" as="geometry" />
          </mxCell>
        </object>
        <mxCell id="7fbWs8w8Dx33rmhqO2U3-46" style="edgeStyle=orthogonalEdgeStyle;rounded=0;orthogonalLoop=1;jettySize=auto;html=1;exitX=0.75;exitY=1;exitDx=0;exitDy=0;exitPerimeter=0;entryX=0.125;entryY=-0.033;entryDx=0;entryDy=0;entryPerimeter=0;strokeWidth=4;dashed=1;" edge="1" parent="1" source="7fbWs8w8Dx33rmhqO2U3-11" target="7fbWs8w8Dx33rmhqO2U3-39">
          <mxGeometry relative="1" as="geometry" />
        </mxCell>
        <mxCell id="7fbWs8w8Dx33rmhqO2U3-60" value="&lt;font style=&quot;font-size: 20px;&quot;&gt;uses&lt;br style=&quot;font-size: 20px;&quot;&gt;(HTTPS)&lt;br style=&quot;font-size: 20px;&quot;&gt;&lt;/font&gt;" style="edgeLabel;html=1;align=center;verticalAlign=middle;resizable=0;points=[];fontSize=20;" vertex="1" connectable="0" parent="7fbWs8w8Dx33rmhqO2U3-46">
          <mxGeometry x="-0.3776" y="5" relative="1" as="geometry">
            <mxPoint x="-355" y="-113" as="offset" />
          </mxGeometry>
        </mxCell>
        <mxCell id="7fbWs8w8Dx33rmhqO2U3-49" style="edgeStyle=orthogonalEdgeStyle;rounded=0;orthogonalLoop=1;jettySize=auto;html=1;entryX=1;entryY=0.75;entryDx=0;entryDy=0;entryPerimeter=0;exitX=0.5;exitY=0;exitDx=0;exitDy=0;exitPerimeter=0;dashed=1;strokeWidth=4;" edge="1" parent="1" source="7fbWs8w8Dx33rmhqO2U3-6" target="7fbWs8w8Dx33rmhqO2U3-11">
          <mxGeometry relative="1" as="geometry" />
        </mxCell>
        <mxCell id="7fbWs8w8Dx33rmhqO2U3-50" value="sends email to" style="edgeLabel;html=1;align=center;verticalAlign=middle;resizable=0;points=[];fontSize=20;" vertex="1" connectable="0" parent="7fbWs8w8Dx33rmhqO2U3-49">
          <mxGeometry x="-0.4316" y="-1" relative="1" as="geometry">
            <mxPoint x="-120" y="-24" as="offset" />
          </mxGeometry>
        </mxCell>
        <mxCell id="7fbWs8w8Dx33rmhqO2U3-51" style="edgeStyle=orthogonalEdgeStyle;rounded=0;orthogonalLoop=1;jettySize=auto;html=1;exitX=0.25;exitY=1;exitDx=0;exitDy=0;exitPerimeter=0;entryX=0.75;entryY=0;entryDx=0;entryDy=0;entryPerimeter=0;strokeWidth=4;dashed=1;" edge="1" parent="1" source="7fbWs8w8Dx33rmhqO2U3-39" target="7fbWs8w8Dx33rmhqO2U3-33">
          <mxGeometry relative="1" as="geometry" />
        </mxCell>
        <mxCell id="7fbWs8w8Dx33rmhqO2U3-52" style="edgeStyle=orthogonalEdgeStyle;rounded=0;orthogonalLoop=1;jettySize=auto;html=1;exitX=0.875;exitY=0.994;exitDx=0;exitDy=0;exitPerimeter=0;entryX=0.25;entryY=0;entryDx=0;entryDy=0;entryPerimeter=0;strokeWidth=4;dashed=1;" edge="1" parent="1" source="7fbWs8w8Dx33rmhqO2U3-37" target="7fbWs8w8Dx33rmhqO2U3-33">
          <mxGeometry relative="1" as="geometry" />
        </mxCell>
        <mxCell id="7fbWs8w8Dx33rmhqO2U3-53" style="edgeStyle=orthogonalEdgeStyle;rounded=0;orthogonalLoop=1;jettySize=auto;html=1;exitX=1;exitY=0.5;exitDx=0;exitDy=0;exitPerimeter=0;entryX=0;entryY=0.5;entryDx=0;entryDy=0;entryPerimeter=0;dashed=1;strokeWidth=4;" edge="1" parent="1" source="7fbWs8w8Dx33rmhqO2U3-36" target="7fbWs8w8Dx33rmhqO2U3-37">
          <mxGeometry relative="1" as="geometry">
            <Array as="points">
              <mxPoint x="430" y="360" />
              <mxPoint x="430" y="360" />
            </Array>
          </mxGeometry>
        </mxCell>
        <mxCell id="7fbWs8w8Dx33rmhqO2U3-65" value="&lt;font style=&quot;font-size: 20px;&quot;&gt;delivers&lt;/font&gt;" style="edgeLabel;html=1;align=center;verticalAlign=middle;resizable=0;points=[];" vertex="1" connectable="0" parent="7fbWs8w8Dx33rmhqO2U3-53">
          <mxGeometry x="-0.1" y="3" relative="1" as="geometry">
            <mxPoint y="-17" as="offset" />
          </mxGeometry>
        </mxCell>
        <mxCell id="7fbWs8w8Dx33rmhqO2U3-54" style="edgeStyle=orthogonalEdgeStyle;rounded=0;orthogonalLoop=1;jettySize=auto;html=1;entryX=1;entryY=0.5;entryDx=0;entryDy=0;entryPerimeter=0;dashed=1;strokeWidth=4;" edge="1" parent="1" source="7fbWs8w8Dx33rmhqO2U3-33" target="7fbWs8w8Dx33rmhqO2U3-28">
          <mxGeometry relative="1" as="geometry" />
        </mxCell>
        <mxCell id="7fbWs8w8Dx33rmhqO2U3-66" value="&lt;font style=&quot;font-size: 20px;&quot;&gt;reads from and writes to&lt;br&gt;(JDBC)&lt;/font&gt;" style="edgeLabel;html=1;align=center;verticalAlign=middle;resizable=0;points=[];" vertex="1" connectable="0" parent="7fbWs8w8Dx33rmhqO2U3-54">
          <mxGeometry x="0.0296" y="-1" relative="1" as="geometry">
            <mxPoint x="9" y="31" as="offset" />
          </mxGeometry>
        </mxCell>
        <mxCell id="7fbWs8w8Dx33rmhqO2U3-55" style="edgeStyle=orthogonalEdgeStyle;rounded=0;orthogonalLoop=1;jettySize=auto;html=1;exitX=1;exitY=0.75;exitDx=0;exitDy=0;exitPerimeter=0;entryX=0;entryY=0.25;entryDx=0;entryDy=0;entryPerimeter=0;dashed=1;strokeWidth=4;" edge="1" parent="1" source="7fbWs8w8Dx33rmhqO2U3-33" target="7fbWs8w8Dx33rmhqO2U3-5">
          <mxGeometry relative="1" as="geometry" />
        </mxCell>
        <mxCell id="7fbWs8w8Dx33rmhqO2U3-67" value="&lt;font style=&quot;font-size: 20px;&quot;&gt;uses&lt;br&gt;(XML/HTTPS)&lt;/font&gt;" style="edgeLabel;html=1;align=center;verticalAlign=middle;resizable=0;points=[];labelBackgroundColor=none;" vertex="1" connectable="0" parent="7fbWs8w8Dx33rmhqO2U3-55">
          <mxGeometry x="-0.1917" y="-1" relative="1" as="geometry">
            <mxPoint x="3" y="29" as="offset" />
          </mxGeometry>
        </mxCell>
        <mxCell id="7fbWs8w8Dx33rmhqO2U3-56" style="edgeStyle=orthogonalEdgeStyle;rounded=0;orthogonalLoop=1;jettySize=auto;html=1;exitX=0.75;exitY=1;exitDx=0;exitDy=0;exitPerimeter=0;entryX=0;entryY=0.25;entryDx=0;entryDy=0;entryPerimeter=0;dashed=1;strokeWidth=4;" edge="1" parent="1" source="7fbWs8w8Dx33rmhqO2U3-33" target="7fbWs8w8Dx33rmhqO2U3-10">
          <mxGeometry relative="1" as="geometry" />
        </mxCell>
        <mxCell id="7fbWs8w8Dx33rmhqO2U3-57" style="edgeStyle=orthogonalEdgeStyle;rounded=0;orthogonalLoop=1;jettySize=auto;html=1;exitX=0.25;exitY=1;exitDx=0;exitDy=0;exitPerimeter=0;entryX=1;entryY=0.25;entryDx=0;entryDy=0;entryPerimeter=0;dashed=1;strokeWidth=4;" edge="1" parent="1" source="7fbWs8w8Dx33rmhqO2U3-33" target="7fbWs8w8Dx33rmhqO2U3-9">
          <mxGeometry relative="1" as="geometry" />
        </mxCell>
        <mxCell id="7fbWs8w8Dx33rmhqO2U3-61" value="&lt;font style=&quot;font-size: 20px;&quot;&gt;uses&lt;/font&gt;" style="edgeLabel;html=1;align=center;verticalAlign=middle;resizable=0;points=[];" vertex="1" connectable="0" parent="1">
          <mxGeometry x="680" y="230" as="geometry" />
        </mxCell>
        <mxCell id="7fbWs8w8Dx33rmhqO2U3-62" value="&lt;font style=&quot;font-size: 20px;&quot;&gt;uses&lt;/font&gt;" style="edgeLabel;html=1;align=center;verticalAlign=middle;resizable=0;points=[];" vertex="1" connectable="0" parent="1">
          <mxGeometry x="860" y="230" as="geometry" />
        </mxCell>
        <mxCell id="7fbWs8w8Dx33rmhqO2U3-63" value="&lt;font style=&quot;font-size: 20px;&quot;&gt;uses&lt;br&gt;(JASON/HTTPS)&lt;br&gt;&lt;/font&gt;" style="edgeLabel;html=1;align=center;verticalAlign=middle;resizable=0;points=[];" vertex="1" connectable="0" parent="1">
          <mxGeometry x="940" y="480" as="geometry" />
        </mxCell>
        <mxCell id="7fbWs8w8Dx33rmhqO2U3-64" value="&lt;font style=&quot;font-size: 20px;&quot;&gt;uses&lt;br&gt;(JASON/HTTPS)&lt;br&gt;&lt;/font&gt;" style="edgeLabel;html=1;align=center;verticalAlign=middle;resizable=0;points=[];" vertex="1" connectable="0" parent="1">
          <mxGeometry x="960" y="490" as="geometry">
            <mxPoint x="-326" y="-6" as="offset" />
          </mxGeometry>
        </mxCell>
        <mxCell id="7fbWs8w8Dx33rmhqO2U3-68" value="&lt;font style=&quot;font-size: 20px;&quot;&gt;uses&lt;br&gt;(XML/HTTPS)&lt;/font&gt;" style="edgeLabel;html=1;align=center;verticalAlign=middle;resizable=0;points=[];labelBackgroundColor=none;" vertex="1" connectable="0" parent="1">
          <mxGeometry x="870" y="656" as="geometry">
            <mxPoint x="-213" y="65" as="offset" />
          </mxGeometry>
        </mxCell>
        <mxCell id="7fbWs8w8Dx33rmhqO2U3-69" value="&lt;font style=&quot;font-size: 20px;&quot;&gt;uses&lt;br&gt;(XML/HTTPS)&lt;/font&gt;" style="edgeLabel;html=1;align=center;verticalAlign=middle;resizable=0;points=[];labelBackgroundColor=none;" vertex="1" connectable="0" parent="1">
          <mxGeometry x="920" y="720" as="geometry" />
        </mxCell>
        <mxCell id="7fbWs8w8Dx33rmhqO2U3-73" value="Online Shopping Store&lt;br style=&quot;font-size: 20px;&quot;&gt;(Software System)" style="text;html=1;align=center;verticalAlign=middle;resizable=0;points=[];autosize=1;strokeColor=none;fillColor=none;fontSize=20;fontStyle=1;fontColor=#969696;" vertex="1" parent="1">
          <mxGeometry x="177" y="690" width="235" height="60" as="geometry" />
        </mxCell>
      </root>
    </mxGraphModel>
  </diagram>
</mxfile>
